<mxGraphModel><root><mxCell id="0"/><mxCell id="1" parent="0"/><mxCell id="2" value="Customer" style="shape=umlLifeline;perimeter=lifelinePerimeter;whiteSpace=wrap;container=1;dropTarget=0;collapsible=0;recursiveResize=0;outlineConnect=0;portConstraint=eastwest;newEdgeStyle={&quot;edgeStyle&quot;:&quot;elbowEdgeStyle&quot;,&quot;elbow&quot;:&quot;vertical&quot;,&quot;curved&quot;:0,&quot;rounded&quot;:0};size=65;" vertex="1" parent="1"><mxGeometry width="150" height="576" as="geometry"/></mxCell><mxCell id="3" value="System" style="shape=umlLifeline;perimeter=lifelinePerimeter;whiteSpace=wrap;container=1;dropTarget=0;collapsible=0;recursiveResize=0;outlineConnect=0;portConstraint=eastwest;newEdgeStyle={&quot;edgeStyle&quot;:&quot;elbowEdgeStyle&quot;,&quot;elbow&quot;:&quot;vertical&quot;,&quot;curved&quot;:0,&quot;rounded&quot;:0};size=65;" vertex="1" parent="1"><mxGeometry x="248" width="150" height="576" as="geometry"/></mxCell><mxCell id="4" value="Database" style="shape=umlLifeline;perimeter=lifelinePerimeter;whiteSpace=wrap;container=1;dropTarget=0;collapsible=0;recursiveResize=0;outlineConnect=0;portConstraint=eastwest;newEdgeStyle={&quot;edgeStyle&quot;:&quot;elbowEdgeStyle&quot;,&quot;elbow&quot;:&quot;vertical&quot;,&quot;curved&quot;:0,&quot;rounded&quot;:0};size=65;" vertex="1" parent="1"><mxGeometry x="495" width="150" height="576" as="geometry"/></mxCell><mxCell id="5" value="Browse Furniture Catalog" style="verticalAlign=bottom;edgeStyle=elbowEdgeStyle;elbow=vertical;curved=0;rounded=0;endArrow=block;" edge="1" parent="1" source="2" target="3"><mxGeometry relative="1" as="geometry"><Array as="points"><mxPoint x="208" y="107"/></Array></mxGeometry></mxCell><mxCell id="6" value="Retrieve Furniture Data" style="verticalAlign=bottom;edgeStyle=elbowEdgeStyle;elbow=vertical;curved=0;rounded=0;endArrow=block;" edge="1" parent="1" source="3" target="4"><mxGeometry relative="1" as="geometry"><Array as="points"><mxPoint x="455" y="159"/></Array></mxGeometry></mxCell><mxCell id="7" value="Send Furniture Data" style="verticalAlign=bottom;edgeStyle=elbowEdgeStyle;elbow=vertical;curved=0;rounded=0;dashed=1;dashPattern=2 3;endArrow=block;" edge="1" parent="1" source="4" target="3"><mxGeometry relative="1" as="geometry"><Array as="points"><mxPoint x="458" y="211"/></Array></mxGeometry></mxCell><mxCell id="8" value="Display Furniture Catalog" style="verticalAlign=bottom;edgeStyle=elbowEdgeStyle;elbow=vertical;curved=0;rounded=0;dashed=1;dashPattern=2 3;endArrow=block;" edge="1" parent="1" source="3" target="2"><mxGeometry relative="1" as="geometry"><Array as="points"><mxPoint x="211" y="263"/></Array></mxGeometry></mxCell><mxCell id="9" value="Clicks on a Furniture" style="verticalAlign=bottom;edgeStyle=elbowEdgeStyle;elbow=vertical;curved=0;rounded=0;endArrow=block;" edge="1" parent="1" source="2" target="3"><mxGeometry relative="1" as="geometry"><Array as="points"><mxPoint x="208" y="315"/></Array></mxGeometry></mxCell><mxCell id="10" value="Retrieve Furniture Details" style="verticalAlign=bottom;edgeStyle=elbowEdgeStyle;elbow=vertical;curved=0;rounded=0;endArrow=block;" edge="1" parent="1" source="3" target="4"><mxGeometry relative="1" as="geometry"><Array as="points"><mxPoint x="455" y="367"/></Array></mxGeometry></mxCell><mxCell id="11" value="Send Furniture Details" style="verticalAlign=bottom;edgeStyle=elbowEdgeStyle;elbow=vertical;curved=0;rounded=0;dashed=1;dashPattern=2 3;endArrow=block;" edge="1" parent="1" source="4" target="3"><mxGeometry relative="1" as="geometry"><Array as="points"><mxPoint x="458" y="419"/></Array></mxGeometry></mxCell><mxCell id="12" value="Display Furniture Details" style="verticalAlign=bottom;edgeStyle=elbowEdgeStyle;elbow=vertical;curved=0;rounded=0;dashed=1;dashPattern=2 3;endArrow=block;" edge="1" parent="1" source="3" target="2"><mxGeometry relative="1" as="geometry"><Array as="points"><mxPoint x="211" y="471"/></Array></mxGeometry></mxCell></root></mxGraphModel>